<?xml version="1.0" encoding="UTF-8"?>
<svg version="1.1" xmlns="http://www.w3.org/2000/svg" width="180" height="180">
<path d="M0 0 C2.37548989 -0.00269909 4.7509787 -0.00658498 7.12646484 -0.01159668 C12.08897489 -0.01747201 17.05119564 -0.00899203 22.01367188 0.00976562 C28.34828729 0.03255348 34.6822246 0.01941988 41.01681519 -0.00452423 C45.91728752 -0.01903524 50.81760128 -0.01435188 55.71807861 -0.00401306 C58.05267417 -0.00136043 60.38728452 -0.00456349 62.72186279 -0.01393127 C79.95874679 -0.06793154 93.16167725 0.53317846 106.625 12.53125 C116.13823421 22.66337491 119.9283841 33.34897066 119.91552734 47.04956055 C119.92224457 48.08469284 119.92896179 49.11982513 119.93588257 50.18632507 C119.95482682 53.59692228 119.95878526 57.00732225 119.9609375 60.41796875 C119.96736885 62.80060404 119.97409746 65.18323854 119.98110962 67.56587219 C119.99307416 72.55817494 119.99679138 77.55040854 119.99560547 82.54272461 C119.99540255 88.91666885 120.02268089 95.29016589 120.05714989 101.66400433 C120.07947115 106.58590196 120.08344137 111.50769295 120.08238602 116.429636 C120.08473501 118.77820181 120.09351866 121.12677086 120.10905075 123.47528648 C120.21172264 140.60614959 119.81335452 154.2626567 107.625 167.53125 C99.63652114 174.54178823 90.03511924 180.61842567 79.12463379 180.67842102 C77.77930573 180.68915398 77.77930573 180.68915398 76.40679932 180.70010376 C75.4301532 180.70279266 74.45350708 180.70548157 73.44726562 180.70825195 C72.41257141 180.71482315 71.3778772 180.72139435 70.31182861 180.72816467 C66.88496831 180.74788515 63.45815189 180.75955987 60.03125 180.76953125 C58.85837936 180.77360678 57.68550873 180.7776823 56.47709656 180.78188133 C50.26468075 180.80274047 44.052287 180.81704079 37.83984375 180.82641602 C31.44229877 180.83745744 25.0451038 180.87183205 18.64768219 180.91158772 C13.71292503 180.93781739 8.7782503 180.9461137 3.84342957 180.94969749 C1.4864822 180.95454994 -0.87046181 180.9661253 -3.2273407 180.98473549 C-21.04101811 181.11660906 -34.7436837 180.45832644 -48.375 167.65234375 C-57.4541138 157.96665122 -60.67767009 146.95783532 -60.66552734 133.99707031 C-60.67224457 132.96033173 -60.67896179 131.92359314 -60.68588257 130.85543823 C-60.70482529 127.44003458 -60.70878505 124.02482787 -60.7109375 120.609375 C-60.71736846 118.22434408 -60.72409704 115.83931395 -60.73110962 113.45428467 C-60.74307341 108.45778577 -60.7467914 103.46135596 -60.74560547 98.46484375 C-60.74540244 92.0818334 -60.77269261 85.69926906 -60.80714989 79.31636429 C-60.82945628 74.390218 -60.83344184 69.46417837 -60.83238602 64.53798676 C-60.83473679 62.18580337 -60.84353059 59.83361681 -60.85905075 57.48148346 C-60.87878396 54.18167971 -60.87284313 50.88282897 -60.86083984 47.58300781 C-60.87207886 46.6236734 -60.88331787 45.66433899 -60.89489746 44.67593384 C-60.78048731 32.21429186 -55.31341943 21.3585752 -47.0859375 12.19140625 C-33.69150814 -0.80547155 -17.42648976 -0.06992592 0 0 Z " fill="#FDFDFD" transform="translate(60.375,-0.53125)"/>
<path d="M0 0 C41.56416465 0 41.56416465 0 51 9 C56.82768112 16.47138605 56.68928023 23.75964909 56 33 C54.61283495 39.54706561 51.73574365 44.41209713 46.43359375 48.52734375 C35.87277466 54.91808018 24.8959466 54.36323501 13 54 C13 65.22 13 76.44 13 88 C8.71 88 4.42 88 0 88 C0 58.96 0 29.92 0 0 Z " fill="#080808" transform="translate(98,46)"/>
<path d="M0 0 C6.17891134 4.04933749 10.03310819 8.82588821 12 16 C12.26970879 18.44985484 12.21031768 20.52876728 12 23 C8.04 23 4.08 23 0 23 C-0.53625 21.2675 -1.0725 19.535 -1.625 17.75 C-3.37098211 12.83977853 -3.37098211 12.83977853 -7.0625 9.375 C-13.30747345 6.45182094 -19.18566297 6.2615795 -26 7 C-29.7631846 8.51659169 -33.14429116 10.28858233 -35 14 C-35.12207871 15.78859511 -35.17548448 17.58228381 -35.1875 19.375 C-35.20876953 20.80972656 -35.20876953 20.80972656 -35.23046875 22.2734375 C-34.98785832 25.14364226 -34.70055458 26.68152618 -33 29 C-29.62030253 30.50935804 -26.14269968 31.63005367 -22.61328125 32.734375 C-21.0809082 33.22550781 -21.0809082 33.22550781 -19.51757812 33.7265625 C-17.40309393 34.40175428 -15.28592837 35.06861317 -13.16601562 35.7265625 C-2.72516614 39.10429186 6.3332021 43.19288481 12 53 C13.92441264 58.77323791 13.60965252 64.88414714 11.9375 70.6875 C7.4291969 78.39524402 2.64025218 83.31640282 -6 86 C-17.69302029 88.64747629 -29.47604386 87.60722772 -39.75 81.3125 C-45.04381775 77.54863312 -49.88278487 72.60286693 -51 66 C-51.12447135 62.99277207 -51.04428988 60.01171196 -51 57 C-46.71 57 -42.42 57 -38 57 C-37.7525 58.546875 -37.505 60.09375 -37.25 61.6875 C-36.33817868 66.10920886 -35.5095844 68.95220302 -32 72 C-25.05229272 75.59791984 -17.47464849 76.26338042 -9.81640625 74.49609375 C-5.67467508 72.93737772 -3.06403634 70.88038832 -1 67 C-0.14262959 62.09034113 -0.11523511 58.35663949 -2.875 54.125 C-8.74001348 50.13679083 -15.08271534 48.2563666 -21.85888672 46.29736328 C-32.64435206 43.13291738 -42.15397521 39.13310963 -48 29 C-50.0309276 22.90721719 -50.11355753 15.53748609 -47.4375 9.625 C-45.00536824 5.52609262 -41.9224954 2.66225591 -38 0 C-37.09894531 -0.62261719 -37.09894531 -0.62261719 -36.1796875 -1.2578125 C-25.99138017 -6.97125543 -9.89713558 -5.6034034 0 0 Z " fill="#070708" transform="translate(78,49)"/>
<path d="M0 0 C3.34125 -0.0825 6.6825 -0.165 10.125 -0.25 C11.16672363 -0.28641602 12.20844727 -0.32283203 13.28173828 -0.36035156 C19.01572442 -0.42873147 22.58393663 -0.04461879 27 4 C31.07575098 9.23656614 30.64642428 14.63918508 30 21 C28.3015244 25.61014806 26.35538779 28.73207023 22.01171875 31.0703125 C17.71630766 32.396263 13.65104117 32.21087387 9.1875 32.125 C6.155625 32.08375 3.12375 32.0425 0 32 C0 21.44 0 10.88 0 0 Z " fill="#FCFCFC" transform="translate(111,57)"/>
</svg>
